<?xml version="1.0"?>
<svg xmlns="http://www.w3.org/2000/svg" viewBox="0 0 80 80">
    <path d="M 15 9 L 15 57 L 9 57 L 9 64 C 9 67.854334 12.145666 71 16 71 L 58 71 C 61.854334 71 65 67.854334 65 64 L 65 9 L 15 9 z M 17 11 L 63 11 L 63 64 C 63 66.773666 60.773666 69 58 69 C 55.226334 69 53 66.773666 53 64 L 53 57 L 17 57 L 17 11 z M 28 22.5 A 1.5 1.5 0 0 0 26.5 24 A 1.5 1.5 0 0 0 28 25.5 A 1.5 1.5 0 0 0 29.5 24 A 1.5 1.5 0 0 0 28 22.5 z M 33 23 L 33 25 L 53 25 L 53 23 L 33 23 z M 28 30.5 A 1.5 1.5 0 0 0 26.5 32 A 1.5 1.5 0 0 0 28 33.5 A 1.5 1.5 0 0 0 29.5 32 A 1.5 1.5 0 0 0 28 30.5 z M 33 31 L 33 33 L 53 33 L 53 31 L 33 31 z M 28 38.5 A 1.5 1.5 0 0 0 26.5 40 A 1.5 1.5 0 0 0 28 41.5 A 1.5 1.5 0 0 0 29.5 40 A 1.5 1.5 0 0 0 28 38.5 z M 33 39 L 33 41 L 53 41 L 53 39 L 33 39 z M 28 46.5 A 1.5 1.5 0 0 0 26.5 48 A 1.5 1.5 0 0 0 28 49.5 A 1.5 1.5 0 0 0 29.5 48 A 1.5 1.5 0 0 0 28 46.5 z M 33 47 L 33 49 L 53 49 L 53 47 L 33 47 z M 11 59 L 51 59 L 51 64 C 51 65.961964 51.826047 67.726707 53.134766 69 L 16 69 C 13.226334 69 11 66.773666 11 64 L 11 59 z M 13 61 A 1 1 0 0 0 12 62 A 1 1 0 0 0 13 63 A 1 1 0 0 0 14 62 A 1 1 0 0 0 13 61 z M 17 61 A 1 1 0 0 0 16 62 A 1 1 0 0 0 17 63 A 1 1 0 0 0 18 62 A 1 1 0 0 0 17 61 z M 21 61 A 1 1 0 0 0 20 62 A 1 1 0 0 0 21 63 A 1 1 0 0 0 22 62 A 1 1 0 0 0 21 61 z M 25 61 A 1 1 0 0 0 24 62 A 1 1 0 0 0 25 63 A 1 1 0 0 0 26 62 A 1 1 0 0 0 25 61 z M 29 61 A 1 1 0 0 0 28 62 A 1 1 0 0 0 29 63 A 1 1 0 0 0 30 62 A 1 1 0 0 0 29 61 z M 33 61 A 1 1 0 0 0 32 62 A 1 1 0 0 0 33 63 A 1 1 0 0 0 34 62 A 1 1 0 0 0 33 61 z M 37 61 A 1 1 0 0 0 36 62 A 1 1 0 0 0 37 63 A 1 1 0 0 0 38 62 A 1 1 0 0 0 37 61 z M 41 61 A 1 1 0 0 0 40 62 A 1 1 0 0 0 41 63 A 1 1 0 0 0 42 62 A 1 1 0 0 0 41 61 z M 45 61 A 1 1 0 0 0 44 62 A 1 1 0 0 0 45 63 A 1 1 0 0 0 46 62 A 1 1 0 0 0 45 61 z M 49 61 A 1 1 0 0 0 48 62 A 1 1 0 0 0 49 63 A 1 1 0 0 0 50 62 A 1 1 0 0 0 49 61 z"/>
</svg>
